<svg version="1.2" xmlns="http://www.w3.org/2000/svg" viewBox="0 0 480 480" width="480" height="480">
	<style>
		.s0 { fill: #000000 } 
	</style>
	<path class="s0" d="m60 50c4.33-11.34 22.77-7.66 40-20 13.06 4.99 26.45-0.04 40-10 8.33 6.78 18.44 9.9 30 10 4.96 12.99 10.53 24.91 20 30-8.93 0.94-9.68 5.38-10 10-8.52 1.26-15.04 4.44-17.45 11.6 1.1 17.07 0.95 30.36 7.45 38.4-6.9 3.71-10.32 10.31-10 20-0.61 12.48-0.02 24.09 9.7 29.11-2.77 11.59 2.97 21.41 10.3 30.89-8.53 13.54-11.62 25.3 0 32.23-7.23 10.26-6.1 19.36 0 27.77-11.53 17.69-17.53 38.01-20 60-0.25 5.85 4.01 12.73 10 20-6.73 13.29-10.26 26.62-10 40 13.72 9.26-1.28 22.34 10 50-0.66 6.81-4.5 13.45-10 20 3.48-11.5 3.32-21.43 0-30-13.09-20.85-7.41-53.89-20-70 5.61-11.33 6.02-24.51 0-40l-10-10c4.61-7.1 8.3-13.89 10-20 4.87-12.5 4.21-25.62 0-39.15 3.05-11.7 3.47-22.18 0-30.85 0.28-15.08-2.88-28.5-10-40l-10-10c1-17.14 4.26-33.82 10-50 2.12-13.86 0.05-24.75-10-30-4.96-2.28 0.11-10.53 0-20-0.3-4.36-3.55-7.72-10-10h-40z"/>
	<path class="s0" d="m170 40l30-20h20c5.66-5.98 15.61-9.34 30-10 9.59-11.42 22.02 12.87 40 10-2.64 7.58 0.12 14.33 10 20l-20 10c7.28 6.64-10.53 14.68-10 30 0.26 10.54 2.77 20.68 10 30-6.15 5.3-9.67 11.88-10 20 8.35 2.14 12.01 8.52 10 20-6.92 11.15-10.13 22.18 0 32.77-8.48 7.19-6.84 20.61 0 37.23 7.34 20.85-35.74 21.49-20 110-17.34 56.06 7.23 48.4 0 70l-10 60-10 20c-7.87-14.47 5.45-32.43 0-40 3.4-15.43-1.32-24.3-10-30l10-20c-13.62-12.87-0.21-32.02-10-60v-20c-1.63-4.84-5.06-8.09-10-10 10.99-18.91 16.29-43.64 20-70 0.23-12.92-4.24-26.39-10-40 6.54-7.11 8.99-17.9 10-30-7.91-1.55-10.05-5.35-10-10 3.94-15.91 3.44-32.68 0-50l-10-10c4.66-23.71 5.99-44.49-10-50-14.27-2.15-27.42 2.29-40 10z"/>
	<path class="s0" d="m290 60l10-10c11.35-7.93 21.11-10.45 30-10 2.83-8.24 9.13-15.06 20-20 14.99 0.62 25.89 3.46 30 10-1.06 16.17 14.32 25.95 10 40 0.11 20.85-20.96 27.55-20 60-5.92 11.74-6 25.05 0 40 0 0 2.39 8.14-0.96 18.19-3.35 10.05 10.96 31.81 10.96 31.81 9.15 19.89-19.63 40.24-9.04 47.34 6.51 10.04 6.29 20.63 0.32 27.13-5.36 5.93-5.55 8.03-1.91 15.96 3.56 8.65 2.96 15.33-1.91 19.47-6.57 6.98 0.01 17.46 2.54 30.1-8.87 9.4-15.48 22.85-20 40v20l-10-30c0.77-12.05 12.66-17.45 7.98-24.68-12.33-9.42-9.75-18.5-3.83-22.34 2.59-2.7 8.28-9.51 3.19-17.55-7.16-13.56 5.06-22.82 2.66-35.43v-60l-3.94-21.06 3.94-18.94c-7.95-8.64-12.73-18.21-10-30 5.11-20-7.66-14.89-5.74-25.43 1.11-6.38 7.87-4.26 10.53-14.68-8.3-23.93 3.11-44.15-4.79-49.89-6.1-6.1-15.37-7.24-30 0-3.41-7.92-8.93-12.86-20-10z"/>
</svg>